<svg width="200" height="237" viewBox="0 0 200 237" fill="none" xmlns="http://www.w3.org/2000/svg">
<circle cx="100" cy="100" r="100" fill="black"/>
<path d="M43.625 124.125C44.2083 119.292 45.25 114.708 46.75 110.375C48.25 105.958 50.0833 101.708 52.25 97.625C54.4167 93.4583 56.8333 89.375 59.5 85.375C62.1667 81.375 65 77.3333 68 73.25C69.75 71 71.6667 68.7083 73.75 66.375C75.8333 64.0417 78.0833 61.9167 80.5 60C82.9167 58.0833 85.5 56.5417 88.25 55.375C91.0833 54.125 94.0417 53.5 97.125 53.5C98.7917 53.5 100.083 53.625 101 53.875C101.917 54.0417 102.583 54.4583 103 55.125C103.5 55.7083 103.792 56.5833 103.875 57.75C103.958 58.9167 103.958 60.4167 103.875 62.25C103.875 64.3333 103.5 66.4583 102.75 68.625C102 70.7917 100.958 72.8333 99.625 74.75C98.2917 76.6667 96.7083 78.375 94.875 79.875C93.0417 81.2917 91.0833 82.3333 89 83V81.25C89 79.5 89.375 77.8333 90.125 76.25C90.9583 74.6667 91.875 73.0833 92.875 71.5C93.875 69.8333 94.75 68.125 95.5 66.375C96.3333 64.625 96.75 62.75 96.75 60.75C95.8333 60.75 95.0417 60.7083 94.375 60.625C93.7083 60.4583 93.0833 60.375 92.5 60.375C92 60.2917 91.4583 60.375 90.875 60.625C90.375 60.7917 89.75 61.2083 89 61.875C84.9167 65.2083 80.7083 69.125 76.375 73.625C72.125 78.0417 68.25 82.8333 64.75 88C61.25 93.1667 58.375 98.5833 56.125 104.25C53.9583 109.833 52.875 115.458 52.875 121.125C52.875 121.375 52.875 121.792 52.875 122.375C52.9583 122.958 53 123.542 53 124.125C53.0833 124.708 53.1667 125.25 53.25 125.75C53.3333 126.25 53.375 126.542 53.375 126.625C54.2917 127.542 55.375 128.083 56.625 128.25C57.9583 128.417 58.9583 128.5 59.625 128.5C63.2083 128.5 66.5417 127.875 69.625 126.625C72.7917 125.375 75.875 124.042 78.875 122.625C81.875 121.125 84.875 119.75 87.875 118.5C90.9583 117.25 94.2083 116.625 97.625 116.625C97.625 117.958 96.8333 119.458 95.25 121.125C93.75 122.708 91.75 124.292 89.25 125.875C86.8333 127.458 84.125 129 81.125 130.5C78.125 131.917 75.1667 133.208 72.25 134.375C69.4167 135.542 66.7917 136.458 64.375 137.125C62.0417 137.792 60.25 138.125 59 138.125C57.1667 138.125 55.3333 137.792 53.5 137.125C51.6667 136.375 50 135.375 48.5 134.125C47.0833 132.875 45.9167 131.417 45 129.75C44.0833 128 43.625 126.125 43.625 124.125ZM98.75 124.125C98.75 122.542 98.9583 121.167 99.375 120C99.875 118.833 101.083 118.25 103 118.25C103.167 118.25 103.542 118.292 104.125 118.375C104.792 118.375 105.25 118.417 105.5 118.5C105.417 122.417 106.042 125.375 107.375 127.375C108.708 129.292 111.208 130.25 114.875 130.25C117.875 130.25 120.833 129.792 123.75 128.875C126.667 127.958 129.292 126.625 131.625 124.875C134.042 123.042 135.958 120.833 137.375 118.25C138.875 115.667 139.625 112.75 139.625 109.5C139.625 107.5 138.917 106.083 137.5 105.25C136.167 104.417 134.667 103.75 133 103.25C131.333 102.75 129.792 102.208 128.375 101.625C127.042 100.958 126.375 99.8333 126.375 98.25C126.375 96.3333 127.542 94.5 129.875 92.75C132.208 91 134.958 89.4583 138.125 88.125C141.292 86.7083 144.417 85.625 147.5 84.875C150.667 84.0417 153.083 83.625 154.75 83.625C154.75 86.0417 154.208 87.75 153.125 88.75C152.125 89.75 150.875 90.5417 149.375 91.125C147.875 91.7083 146.333 92.2917 144.75 92.875C143.25 93.375 142 94.375 141 95.875C142.333 96.9583 143.417 97.9583 144.25 98.875C145.167 99.7083 145.875 100.625 146.375 101.625C146.875 102.625 147.208 103.75 147.375 105C147.542 106.167 147.625 107.583 147.625 109.25C147.625 113.583 146.667 117.542 144.75 121.125C142.917 124.625 140.5 127.667 137.5 130.25C134.5 132.75 131.083 134.708 127.25 136.125C123.417 137.458 119.5 138.125 115.5 138.125C113.333 138.125 111.208 137.875 109.125 137.375C107.125 136.792 105.333 135.917 103.75 134.75C102.25 133.583 101.042 132.125 100.125 130.375C99.2083 128.625 98.75 126.542 98.75 124.125Z" fill="white"/>
</svg>
