<svg width="200" height="200" viewBox="0 0 200 200" fill="none" xmlns="http://www.w3.org/2000/svg">
<circle cx="100" cy="100" r="100" fill="black"/>
<path d="M97.752 121.76C100.909 122.443 102.488 124.021 102.488 126.496C99.2453 132.384 95.2773 137.163 90.584 140.832C85.8907 144.501 81.4533 146.933 77.272 148.128C73.0907 149.323 68.7813 149.92 64.344 149.92C54.2747 149.92 45.8267 146.08 39 138.4C32.1733 130.72 28.76 119.541 28.76 104.864C28.76 88.48 32.984 74.528 41.432 63.008C45.6133 57.4613 50.9467 53.0667 57.432 49.824C64.0027 46.496 71.5547 44.832 80.088 44.832C88.7067 44.832 95.2347 47.136 99.672 51.744C104.195 56.2667 106.456 61.6427 106.456 67.872C106.456 74.016 104.749 79.0507 101.336 82.976C97.9227 86.816 93.4853 88.736 88.024 88.736C86.1467 88.736 83.9707 88.3947 81.496 87.712C83.288 85.4933 84.8667 82.336 86.232 78.24C87.5973 74.144 88.28 70.2613 88.28 66.592C88.28 62.9227 87.4267 59.936 85.72 57.632C84.0133 55.328 81.3253 54.176 77.656 54.176C72.024 54.176 66.9467 56.7787 62.424 61.984C57.9013 67.1893 54.5307 73.5893 52.312 81.184C50.0933 88.7787 48.984 96.6293 48.984 104.736C48.984 115.659 51.1173 123.936 55.384 129.568C59.6507 135.2 65.112 138.016 71.768 138.016C75.9493 138.016 80.3013 136.608 84.824 133.792C89.3467 130.976 93.656 126.965 97.752 121.76ZM147.227 81.696C144.838 81.696 142.704 82.5067 140.827 84.128C138.95 85.664 138.011 87.8827 138.011 90.784C138.011 93.6853 138.992 96.416 140.955 98.976C143.003 101.536 145.478 103.797 148.379 105.76C151.28 107.637 154.182 109.6 157.083 111.648C160.07 113.611 162.672 116.085 164.891 119.072C167.11 121.973 168.347 125.216 168.603 128.8C168.603 134.944 165.958 140.107 160.667 144.288C155.376 148.469 148.806 150.56 140.955 150.56C133.104 150.56 126.918 148.981 122.395 145.824C117.958 142.667 115.739 139.04 115.739 134.944C115.739 130.848 116.976 127.563 119.451 125.088C122.011 122.528 125.168 121.248 128.923 121.248C130.886 121.248 132.72 121.589 134.427 122.272C131.696 125.173 130.331 128.245 130.331 131.488C130.331 134.731 131.227 137.333 133.019 139.296C134.811 141.259 137.243 142.24 140.315 142.24C143.387 142.24 145.947 141.472 147.995 139.936C150.128 138.315 151.195 136.267 151.195 133.792C151.195 131.232 150.47 128.971 149.019 127.008C147.568 125.045 145.734 123.339 143.515 121.888C141.382 120.352 139.035 118.645 136.475 116.768C133.915 114.891 131.526 113.013 129.307 111.136C127.174 109.173 125.382 106.741 123.931 103.84C122.48 100.853 121.755 97.6107 121.755 94.112C121.755 88.0533 124.23 83.104 129.179 79.264C134.214 75.3387 140.443 73.376 147.867 73.376C155.376 73.376 160.838 74.8267 164.251 77.728C167.75 80.6293 169.499 84.0427 169.499 87.968C169.499 91.808 168.262 95.0933 165.787 97.824C163.398 100.555 160.283 101.92 156.443 101.92C154.566 101.92 152.432 101.536 150.043 100.768C151.92 99.1467 153.371 97.312 154.395 95.264C155.419 93.1307 155.931 91.04 155.931 88.992C155.931 86.944 155.078 85.2373 153.371 83.872C151.664 82.4213 149.616 81.696 147.227 81.696Z" fill="white"/>
</svg>
